<svg width="16" height="16" viewBox="0 0 16 16" fill="none" xmlns="http://www.w3.org/2000/svg">
<path d="M0.184054 0.112806C0.258701 0.0518157 0.349387 0.0137035 0.445193 0.00305845C0.540999 -0.00758662 0.637839 0.00968929 0.724054 0.0528059L15.7241 7.55281C15.8073 7.59427 15.8773 7.65812 15.9262 7.73717C15.9751 7.81622 16.001 7.90734 16.001 8.00031C16.001 8.09327 15.9751 8.18439 15.9262 8.26344C15.8773 8.34249 15.8073 8.40634 15.7241 8.44781L0.724054 15.9478C0.637926 15.9909 0.541171 16.0083 0.445423 15.9977C0.349675 15.9872 0.25901 15.9492 0.184331 15.8884C0.109651 15.8275 0.0541361 15.7464 0.0244608 15.6548C-0.00521444 15.5631 -0.0077866 15.4649 0.0170539 15.3718L1.98305 8.00081L0.0170539 0.629806C-0.00790602 0.536702 -0.0054222 0.438369 0.0242064 0.346644C0.053835 0.25492 0.109345 0.173715 0.184054 0.112806ZM2.88405 8.50081L1.27005 14.5568L14.3821 8.00081L1.26905 1.44481L2.88405 7.50081H9.50005C9.63266 7.50081 9.75984 7.55348 9.85361 7.64725C9.94738 7.74102 10.0001 7.8682 10.0001 8.00081C10.0001 8.13341 9.94738 8.26059 9.85361 8.35436C9.75984 8.44813 9.63266 8.50081 9.50005 8.50081H2.88405Z" fill="#226F9E"/>
</svg>
